<?xml version="1.0" standalone="no"?>
<!DOCTYPE svg PUBLIC "-//W3C//DTD SVG 20010904//EN"
 "http://www.w3.org/TR/2001/REC-SVG-20010904/DTD/svg10.dtd">
<svg version="1.0" xmlns="http://www.w3.org/2000/svg"
 width="1024.000000pt" height="1024.000000pt" viewBox="0 0 1024.000000 1024.000000"
 preserveAspectRatio="xMidYMid meet">
<metadata>
Created by potrace 1.14, written by Peter Selinger 2001-2017
</metadata>
<g transform="translate(0.000000,1024.000000) scale(0.100000,-0.100000)"
fill="#000000" stroke="none">
<path d="M3654 8871 c-127 -23 -203 -48 -384 -129 -669 -296 -934 -511 -1285
-1041 -166 -251 -219 -380 -254 -614 -12 -76 -31 -164 -44 -196 -41 -101 -172
-286 -352 -496 -304 -353 -448 -618 -499 -915 -16 -94 -65 -576 -86 -843 -13
-170 -12 -938 1 -1027 18 -121 92 -243 285 -470 82 -97 236 -250 252 -250 13
0 201 -140 395 -292 76 -60 155 -119 175 -131 20 -11 138 -87 262 -168 286
-186 452 -283 712 -415 471 -238 850 -371 1244 -438 407 -68 659 -83 1584 -91
738 -7 717 -8 882 45 102 32 160 40 426 55 l253 14 342 115 c188 63 419 135
512 161 94 26 192 58 218 73 80 43 458 454 561 610 35 54 107 143 159 199 103
111 148 186 167 280 20 93 9 138 -74 301 -67 129 -88 160 -173 254 -54 60
-123 129 -153 154 -81 67 -100 91 -100 127 0 56 33 82 217 166 175 80 319 171
365 231 13 17 42 52 66 78 96 106 115 199 63 307 -33 69 -156 258 -211 325
-93 111 -370 511 -370 533 0 31 8 37 185 142 175 102 185 110 185 142 0 13 6
23 14 23 35 0 57 36 81 133 16 66 50 151 105 267 86 180 120 288 120 378 0 76
-47 443 -75 587 -41 213 -78 288 -195 399 -62 58 -97 79 -340 201 -321 161
-502 242 -722 325 -173 65 -846 381 -988 464 -262 154 -489 208 -794 191 -303
-17 -513 -72 -819 -217 -137 -65 -221 -82 -286 -60 -35 12 -263 154 -429 266
-187 126 -365 206 -544 242 -131 26 -522 29 -654 5z m2131 -1391 c28 -5 79
-14 115 -20 239 -39 440 -139 601 -299 357 -358 374 -889 40 -1222 -79 -78
-159 -125 -301 -174 -170 -59 -250 -74 -457 -87 -226 -14 -352 -5 -588 43
-333 67 -520 122 -693 204 -205 98 -366 216 -531 390 -272 285 -351 347 -512
406 -121 44 -165 95 -140 162 16 42 49 56 162 67 207 21 353 67 590 186 354
177 725 284 1169 338 130 16 469 19 545 6z m2710 -125 c213 -28 406 -82 572
-161 172 -82 272 -206 309 -384 23 -110 15 -414 -14 -523 -42 -155 -86 -227
-178 -293 -112 -80 -238 -126 -393 -144 -105 -12 -625 5 -781 25 -609 80
-1035 284 -1084 520 -3 17 -13 98 -21 180 -9 83 -25 202 -35 266 -34 197 -25
256 44 317 47 41 82 56 235 98 216 59 489 104 721 118 130 8 508 -4 625 -19z
m-533 -3768 c133 -40 499 -352 562 -478 30 -62 32 -88 9 -136 -28 -59 -81 -88
-292 -157 -320 -106 -507 -151 -879 -212 -221 -37 -328 -40 -397 -14 -36 14
-28 23 95 121 220 174 353 335 336 404 -7 26 -112 185 -178 268 -21 27 -38 55
-38 63 0 47 109 85 350 119 277 39 360 43 432 22z m-3027 -357 c200 -54 463
-150 610 -223 39 -18 165 -89 280 -156 193 -111 210 -123 210 -149 l0 -27 -70
3 c-105 5 -258 29 -391 62 -168 41 -545 160 -699 220 -188 74 -391 174 -404
199 -17 31 2 58 47 70 20 5 55 14 77 20 62 16 248 6 340 -19z"/>
<path d="M5440 7144 c-127 -34 -272 -122 -354 -216 -57 -65 -118 -181 -142
-268 -25 -93 -25 -276 0 -350 44 -129 133 -233 250 -290 107 -53 235 -52 453
5 235 62 368 183 408 372 17 80 19 280 4 373 -37 229 -241 392 -489 389 -41 0
-100 -7 -130 -15z m278 -495 c113 -56 129 -106 59 -191 -68 -83 -141 -138
-184 -138 -94 0 -166 171 -117 276 43 90 130 109 242 53z"/>
<path d="M8194 7145 c-94 -20 -154 -56 -228 -136 -126 -136 -193 -317 -184
-490 5 -74 11 -100 41 -162 42 -90 119 -169 203 -212 52 -26 74 -31 179 -37
66 -4 153 -10 193 -14 137 -12 212 41 298 211 69 136 114 269 114 339 0 46 -8
70 -50 153 -69 135 -177 266 -254 309 -93 51 -197 64 -312 39z m311 -544 c37
-21 55 -54 55 -102 0 -72 -69 -109 -204 -109 -101 0 -125 22 -116 105 11 105
161 165 265 106z"/>
</g>
</svg>
